HIERARCHY
ROOT Hips
{
  OFFSET -331.093 83.8371 -317.828
  CHANNELS 6 Xposition Yposition Zposition Zrotation Xrotation Yrotation
  JOINT LeftUpLeg
  {
    OFFSET 8.64259 1.95398 -2.38835
    CHANNELS 3 Zrotation Xrotation Yrotation
    JOINT LeftLeg
    {
      OFFSET 43.7702 0 0
      CHANNELS 3 Zrotation Xrotation Yrotation
      JOINT LeftFoot
      {
        OFFSET 40.6238 0 0
        CHANNELS 3 Zrotation Xrotation Yrotation
        JOINT LeftToeBase
        {
          OFFSET 12.7242 0 0
          CHANNELS 3 Zrotation Xrotation Yrotation
          End Site
          {
            OFFSET 0 0 0
          }
        }
      }
    }
  }
  JOINT RightUpLeg
  {
    OFFSET -8.2249 1.95398 -2.59336
    CHANNELS 3 Zrotation Xrotation Yrotation
    JOINT RightLeg
    {
      OFFSET 43.5653 0 0
      CHANNELS 3 Zrotation Xrotation Yrotation
      JOINT RightFoot
      {
        OFFSET 40.6238 0 0
        CHANNELS 3 Zrotation Xrotation Yrotation
        JOINT RightToeBase
        {
          OFFSET 12.7242 0 0
          CHANNELS 3 Zrotation Xrotation Yrotation
          End Site
          {
            OFFSET 0 0 0
          }
        }
      }
    }
  }
  JOINT Spine
  {
    OFFSET 0.165834 0.87714 6.61349
    CHANNELS 3 Zrotation Xrotation Yrotation
    JOINT Spine1
    {
      OFFSET 7.38963 1.71661e-005 0
      CHANNELS 3 Zrotation Xrotation Yrotation
      JOINT Spine2
      {
        OFFSET 11.9445 1.14441e-005 0
        CHANNELS 3 Zrotation Xrotation Yrotation
        JOINT Spine3
        {
          OFFSET 14.7254 4.19617e-005 0
          CHANNELS 3 Zrotation Xrotation Yrotation
          JOINT Spine4
          {
            OFFSET 10.9679 0 0
            CHANNELS 3 Zrotation Xrotation Yrotation
            JOINT RightShoulder
            {
              OFFSET 2.46616 -1.6653 3.69651
              CHANNELS 3 Zrotation Xrotation Yrotation
              JOINT RightArm
              {
                OFFSET 13.0012 0 0
                CHANNELS 3 Zrotation Xrotation Yrotation
                JOINT RightForeArm
                {
                  OFFSET 28.7848 1.62311e-005 0
                  CHANNELS 3 Zrotation Xrotation Yrotation
                  JOINT RightHand
                  {
                    OFFSET 26.5688 1.62095e-005 0
                    CHANNELS 3 Zrotation Xrotation Yrotation
                    End Site
                    {
                      OFFSET 0 0 0
                    }
                  }
                }
              }
            }
            JOINT LeftShoulder
            {
              OFFSET 2.38034 -1.29275 -3.7523
              CHANNELS 3 Zrotation Xrotation Yrotation
              JOINT LeftArm
              {
                OFFSET 16.3182 6.07031e-005 0
                CHANNELS 3 Zrotation Xrotation Yrotation
                JOINT LeftForeArm
                {
                  OFFSET 27.0901 0 0
                  CHANNELS 3 Zrotation Xrotation Yrotation
                  JOINT LeftHand
                  {
                    OFFSET 24.5451 1.51738e-005 0
                    CHANNELS 3 Zrotation Xrotation Yrotation
                    End Site
                    {
                      OFFSET 0 0 0
                    }
                  }
                }
              }
            }
            JOINT Neck
            {
              OFFSET 5.0226 -0.0266342 0
              CHANNELS 3 Zrotation Xrotation Yrotation
              JOINT Head
              {
                OFFSET 6.69364 2.86102e-005 0
                CHANNELS 3 Zrotation Xrotation Yrotation
                End Site
                {
                  OFFSET 0 0 0
                }
              }
            }
          }
        }
      }
    }
  }
}
MOTION
Frames:	18
Frame Time:	0.0416667
15.0955 73.6596 -347.565 -7.94497 23.3616 36.2043 53.2973 69.7999 -167.657 -160.215 22.8528 76.6413 -135.421 52.284 14.8918 1.89659 -17.7187 -10.5815 -6.706 15.9161 -115.275 -0.923083 5.65443 8.30691 47.2594 14.3129 1.66125 79.9724 75.6743 103.566 -2.74056 -7.95252 -89.9029 42.9069 -4.67085 2.84704 31.2407 -4.54106 3.05001 8.6453 -5.31003 1.30878 28.6579 -5.31001 1.30877 117.307 -28.9632 -51.0661 -28.7329 -55.3167 -93.4433 -13.7023 20.406 -34.5604 -34.4931 -21.3429 57.7781 -91.7297 -33.9294 71.9428 -57.1139 64.6382 23.4999 -6.26014 -18.3159 -54.505 51.7617 -1.19232 -6.52589 -0.221811 -13.4101 -18.4427 -36.9195 -13.1442 6.91323 
15.8089 74.1165 -343.848 -3.39122 16.7614 28.666 41.8206 66.0017 -131.359 65.9855 -60.2603 147.459 41.5161 -52.4004 -151.088 14.3079 -9.97082 16.2779 1.11323 21.9706 -114.046 0.52294 -1.56754 13.5359 49.4577 13.7275 1.02445 73.7612 75.0461 109.77 -2.62875 -6.44825 -92.132 39.7563 -6.07736 -1.48094 28.0992 -6.13662 -1.21109 5.47505 -5.35055 -3.24327 25.4877 -5.35056 -3.24328 104.153 -41.9262 -78.2934 -77.6626 -43.6687 -115.11 -30.4302 44.8296 -18.5946 -31.6719 -21.4108 60.4317 -86.1496 -43.2392 83.7694 -60.4014 45.392 35.1447 10.9142 -13.983 -72.0786 50.3862 1.12069 -1.90191 -11.53 -0.473227 -2.31356 -17.6193 -1.18433 3.43858 
16.1329 76.7935 -341.178 0.144068 5.54387 17.8524 106.977 81.8059 171.014 -7.3982 -83.7037 70.0893 55.3707 -55.1174 -131.02 21.3243 -12.8261 1.71174 14.7876 33.7138 -115.388 6.33316 -14.0511 20.7531 50.2313 10.8727 -0.446249 72.5572 75.0713 111.144 -2.24241 -4.01881 -92.7992 34.9714 -5.94687 -3.451 23.3097 -6.09284 -3.18545 0.7419 -4.63639 -5.07893 20.7545 -4.63639 -5.07894 86.1014 -44.0807 -108.173 -101.516 -43.8916 -120.49 -55.4002 44.598 2.38478 -30.3364 -17.8863 53.1874 -78.8992 -47.7321 95.8918 -52.696 27.4774 31.48 25.06 -10.7303 -85.8134 39.8491 2.68438 2.91304 -13.8022 5.83084 15.2781 -5.43994 5.78175 -5.94174 
17.1296 84.0518 -337.686 1.82743 -9.4552 3.14433 -172.667 80.9253 91.3724 -65.9955 -80.4559 12.2906 -4.32632 -5.26824 -84.6122 -10.365 0.287293 -89.2845 12.5432 52.7977 -98.9065 -4.43434 -25.9798 5.47772 57.042 4.18017 -1.91169 74.2257 74.8128 109.019 -0.602609 -1.993 -89.9904 30.54 -1.41834 -0.407785 18.8695 -1.4349 -0.344981 -3.66882 -1.23024 -0.815192 16.3438 -1.23025 -0.815208 86.7817 -44.4154 -107.002 -53.9757 -63.3201 -77.8273 -56.8946 27.2653 -23.3168 -36.5969 -5.96349 12.5459 -88.3561 -50.4764 81.7344 -42.2886 16.5669 32.7713 25.1016 -10.3534 -94.0487 32.3009 3.18912 6.08853 -9.94972 3.03256 10.7203 -2.17556 2.51713 -5.79548 
17.5855 88.2366 -334.543 1.51412 -27.4333 -13.3494 -141.029 71.9744 59.1097 -83.3661 -64.8326 -3.99794 11.8095 -24.0214 -68.188 -12.7558 -14.8054 -56.8033 -11.6695 75.4707 -70.3016 -7.26728 -33.0415 -1.03746 60.5454 -0.581542 -2.20776 70.8598 73.9715 111.984 0.644713 0.994367 -88.159 24.8452 2.30551 3.16878 13.1727 2.44267 3.06434 -9.33756 1.24732 3.71448 10.6751 1.24733 3.7145 90.7677 -40.8833 -101.461 13.2189 -48.8265 -19.2743 -56.2335 23.2231 -61.232 -42.0661 3.46856 -15.4106 -92.0346 -48.7983 75.874 -39.2438 16.0341 33.7469 21.5226 -11.4601 -96.6517 31.7138 3.24488 6.48049 -1.26706 0.707877 5.35124 -3.40284 0.0568652 -3.50846 
17.8372 91.764 -333.674 -1.02241 -45.7315 -24.9586 -137.535 63.7709 53.4096 -77.7971 -21.5941 -7.38443 50.9806 -13.2977 -20.5428 17.7867 -6.4689 13.779 -80.436 84.7326 -3.83847 -30.6053 -40.3224 -7.45685 73.5228 -6.04187 -5.44741 55.2961 70.4066 127.365 1.11345 3.49929 -86.9406 19.794 3.83639 5.47029 8.11788 4.07309 5.29663 -14.3403 2.01894 6.36698 5.67239 2.01894 6.36699 92.5455 -37.8716 -99.1505 33.9946 -33.9815 -0.430586 -46.0987 23.9492 -88.0293 -46.689 5.1886 -18.3537 -91.4853 -46.3155 76.073 -42.184 17.8573 38.5173 21.4926 -13.9889 -98.9372 32.8928 3.4317 6.68461 0.59684 -1.09908 4.1811 -3.02222 -1.65438 -4.17249 
18.6074 93.6137 -327.884 -1.30233 -61.9837 -23.1764 -153.972 56.0704 66.9017 -63.3264 9.17359 -7.9682 52.5756 -3.40943 6.4891 30.7423 6.67611 18.9135 -150.987 81.0103 63.4362 -65.7577 -35.11 -14.8077 94.7756 -18.609 -8.67063 41.8423 63.5988 140.248 0.863869 5.25092 -87.1881 16.2959 3.13568 5.14932 4.619 3.35898 5.00674 -17.8431 1.44617 5.85124 2.16952 1.44618 5.85124 92.8841 -35.7981 -99.0614 40.4306 -28.6547 5.60793 -31.2661 18.2343 -102.081 -51.3955 1.47392 -8.32013 -89.9013 -44.4074 78.0692 -46.9837 17.6158 45.1131 18.2775 -15.7366 -101.741 30.9838 3.09467 6.15471 0.836477 -1.8763 4.95691 -3.48453 -2.50315 -5.82111 
19.4312 95.6754 -319.882 7.2625 -73.0701 -7.52584 -168.936 50.6684 80.6306 -50.8817 10.0414 -4.57044 50.485 -7.39347 -2.38889 29.3931 6.37729 22.2547 176.781 67.0043 86.8232 -75.7585 -34.3011 -7.07264 111.31 -29.5673 -6.06995 30.3406 52.9072 152.181 0.631961 6.2731 -88.0659 14.2822 2.20204 3.5765 2.60853 2.35722 3.47624 -19.8918 1.02635 4.07214 0.12084 1.02635 4.07213 93.5322 -35.1802 -98.0178 41.2893 -29.7466 6.64729 -24.6998 14.204 -105.874 -46.9431 -1.37566 -1.65459 -89.2734 -42.2333 78.5496 -51.9318 17.1927 50.9323 19.5173 -17.6267 -102.204 26.2541 2.35726 5.22237 0.433004 -2.88314 4.47688 -4.11646 -3.37105 -6.5325 
20.4774 96.6878 -311.594 13.5974 -78.2971 4.38066 -174.941 44.0427 87.5086 -33.3936 16.3277 -3.45102 45.634 -10.324 -5.47082 33.0572 12.7679 27.7975 171.37 51.8051 90.922 -80.484 -30.9932 -4.82347 126.384 -35.0723 -1.33953 22.0438 32.8817 159.307 0.783461 6.79631 -88.7516 13.2561 2.15695 2.22798 1.5852 2.25291 2.13093 -20.9416 1.38793 2.77295 -0.928999 1.38792 2.77294 93.9152 -33.9888 -97.5912 42.8377 -29.5709 8.0775 -23.2857 16.1486 -110.849 -28.2464 -1.22937 -0.115483 -88.9665 -40.8432 78.7178 -55.6434 17.3684 54.1153 17.9753 -18.7169 -103.587 33.2526 3.04022 5.35253 1.05871 -3.76875 4.09877 -4.24273 -4.20971 -6.25373 
21.5235 97.5099 -303.12 15.1222 -80.6236 9.15568 -176.824 39.0594 90.5798 -19.1053 17.3486 -2.58561 43.6386 -10.9469 -5.07528 34.7646 10.7556 18.2954 172.43 37.392 93.9629 -80.7096 -21.5715 -7.07983 136.308 -35.2767 1.10348 16.2595 5.23775 161.096 1.00626 7.0145 -89.117 12.828 2.42105 1.47627 1.15853 2.48368 1.36826 -21.3817 1.86554 2.13566 -1.36902 1.86554 2.13565 94.4213 -33.8236 -96.6715 42.715 -29.7558 9.35675 -21.6803 18.5989 -112.181 -27.1499 -1.33781 0.565788 -88.8645 -40.1005 78.7069 -56.6747 16.743 54.8718 19.9999 -19.4783 -103.599 30.6199 2.87041 5.60002 1.85057 -4.28442 2.74474 -3.65612 -4.57384 -5.52434 
22.6089 97.0891 -293.96 14.425 -82.6586 8.84736 -176.226 33.1937 89.7397 -11.1863 13.0623 -1.99115 42.6023 -11.8701 -9.95427 41.499 20.2072 22.182 175.731 24.1814 93.7068 -78.2714 -10.6985 -7.72361 140.294 -35.2396 2.39968 5.25863 -35.2869 151.03 1.02692 7.21386 -89.1944 12.4318 2.42343 1.33106 0.762573 2.47966 1.22306 -21.7794 1.9114 1.99791 -1.76679 1.91141 1.99792 94.1271 -33.7687 -97.2434 42.4712 -29.7718 10.5647 -21.5162 16.4078 -109.719 -22.5893 -0.73914 -1.58249 -88.5467 -40.6101 79.3583 -56.3088 15.595 53.0321 19.1474 -18.5176 -103.928 33.1941 3.22518 5.94413 2.78036 -4.08097 2.60087 -3.66248 -4.37544 -4.908 
23.8345 96.042 -285.094 15.6318 -84.919 9.22971 -175.494 29.9585 88.0778 -14.7576 14.4641 -2.63802 45.0306 -10.5793 -7.09586 39.2217 17.1552 21.4926 177.773 13.5821 92.3939 -76.8243 -2.17391 -6.92129 136.161 -35.025 1.99224 -47.1756 -62.2253 91.9185 0.917642 7.39178 -89.1139 12.0744 2.24295 1.52261 0.404594 2.30779 1.42239 -22.1331 1.68175 2.12627 -2.12048 1.68175 2.12626 93.6302 -34.6985 -97.9526 42.7276 -29.2743 12.7412 -20.6254 13.8541 -106.441 -25.6697 -1.10013 -0.357382 -88.5931 -41.919 79.5851 -53.0806 13.3489 49.2418 18.6033 -16.4664 -103.463 32.698 3.06875 5.60364 2.56702 -3.58143 2.45989 -3.85684 -3.85217 -4.70527 
25.0118 95.1148 -276.483 20.6011 -87.935 14.5132 -174.052 29.0329 87.619 -29.1126 19.655 -4.37122 53.8405 -3.53295 3.98124 36.669 7.50724 4.6801 176.985 7.30399 91.2139 -79.9622 -0.915445 -5.3117 122.514 -32.0058 -1.41927 -91.4644 -36.236 29.4356 0.841473 7.60773 -89.1656 11.6442 2.06491 1.44803 -0.0258598 2.12664 1.35574 -22.5627 1.53435 2.00163 -2.55001 1.53434 2.00163 93.3265 -36.1192 -98.1693 42.8689 -29.0573 15.3938 -19.1703 11.209 -101.328 -29.8286 -1.47177 0.550628 -89.7398 -43.5258 78.1116 -49.2355 11.6671 45.3896 17.9085 -14.7925 -103.24 33.1457 3.16426 5.76832 0.391008 -3.08288 1.81097 -2.03175 -3.30151 -3.97361 
25.9498 93.1864 -268.305 68.6389 -89.1285 62.6058 -172.455 27.8044 86.6235 -41.6769 17.3741 -4.49384 63.2652 4.80139 8.59996 39.2625 7.35599 -1.63775 177.41 11.0785 92.5786 -90.4865 2.24174 -4.25314 97.8186 -21.2282 -5.70102 -69.0202 -6.98256 9.92822 0.535387 7.74953 -89.1424 11.3636 1.46541 1.56189 -0.307378 1.53273 1.49588 -22.8383 0.92834 1.93 -2.82566 0.928346 1.93 92.5683 -37.8437 -99.1142 42.6151 -27.5814 16.9292 -17.7 6.01194 -93.9037 -28.9887 -0.883978 -1.66263 -91.0595 -45.5641 76.5373 -44.1211 10.3164 39.7328 17.346 -12.9329 -102.648 33.9099 3.33719 6.05453 -1.91605 -2.06754 0.804139 1.49577 -2.21832 -2.52347 
26.5859 92.0335 -261.203 66.3929 -87.8982 58.6555 -172.731 26.798 84.1693 -48.1087 14.9732 -3.52423 65.4089 5.27884 6.85103 46.9565 14.8126 1.78676 177.352 22.9503 90.9198 -97.3927 4.98087 -3.49026 70.1142 -7.56858 -4.31097 -25.8101 3.60837 -7.26723 0.0776719 7.86947 -88.8265 11.121 0.69938 2.26621 -0.551744 0.79842 2.23325 -23.0707 -0.0138192 2.37157 -3.05809 -0.0138122 2.37158 92.0382 -39.6746 -99.5903 42.498 -25.8957 17.0769 -17.0302 3.30039 -86.4839 -32.718 -1.24772 -0.70118 -93.0355 -47.3047 73.9684 -36.7598 10.4045 30.7336 17.4846 -10.928 -100.655 35.3328 3.98233 7.53897 0.928093 -0.940595 -0.726395 0.557979 -0.846755 -1.18254 
27.2547 91.2733 -254.041 47.6413 -84.6109 41.4677 -173.676 26.1702 84.8105 -50.8957 16.4481 -2.42027 67.877 8.76239 10.0828 51.6839 19.1472 2.42805 175.368 35.4599 91.4189 -97.1942 7.44807 -2.53802 54.0698 -0.629888 -0.674076 19.655 -0.118961 -11.0314 -0.342715 7.6676 -88.9872 11.5378 -0.207819 2.04237 -0.134782 -0.117737 2.04953 -22.6588 -0.81193 1.8856 -2.64613 -0.811927 1.8856 91.518 -40.7847 -100.205 42.861 -24.3076 19.6032 -11.9544 0.392304 -81.0006 -35.822 -1.67443 0.185271 -94.6188 -48.0538 71.7955 -30.2235 11.379 21.2124 17.6576 -9.50288 -97.8656 34.7305 4.00348 7.78935 1.68465 0.301226 -0.604814 0.827549 0.366937 -0.930448 
27.7035 91.7264 -245.915 43.4894 -84.9686 37.7935 -173.973 19.5273 85.6414 -48.7585 16.694 -1.99258 67.3925 8.16503 9.80675 55.6484 24.9524 6.14494 174.596 42.2294 91.9072 -91.8084 10.8098 -1.94449 52.2576 0.38285 0.180253 33.2494 -1.06898 -6.26664 -0.551806 7.67464 -89.0769 11.5267 -0.665975 1.90733 -0.145551 -0.5814 1.93478 -22.6734 -1.20835 1.61911 -2.66079 -1.20835 1.61911 91.1205 -41.7492 -100.633 43.3243 -24.2136 24.5782 -11.2832 0.321149 -79.6592 -37.3898 -1.66878 -0.0567078 -94.628 -47.8184 71.7113 -27.4702 10.6559 16.537 17.4617 -10.065 -100.68 37.4633 4.34608 7.83326 0.948176 2.24037 0.804268 0.995712 2.05741 -1.21613 
27.794 93.0116 -236.936 31.7876 -86.1117 25.8192 -174.494 10.4622 86.1889 -42.7001 16.0968 -1.66183 66.7067 7.03743 8.2698 52.0592 25.1369 11.7941 175.1 44.6776 91.6356 -80.6843 8.77368 -1.34177 56.6101 0.000137612 -0.120306 31.3897 -1.10723 -7.38893 -0.68383 7.65305 -89.0684 11.5725 -0.924177 1.95185 -0.0996279 -0.837399 1.99061 -22.6291 -1.468 1.58398 -2.61641 -1.468 1.58399 91.0931 -42.2701 -100.546 44.198 -24.6079 30.3229 -13.4453 1.87693 -81.5538 -33.9222 -1.7411 0.78762 -92.7939 -46.4547 74.0969 -28.0012 9.05172 14.3377 16.4794 -11.5483 -106.52 33.3801 3.70502 7.3697 0.524171 4.4559 0.611084 0.559547 4.3381 1.41489 
